# xmcd
#
# Track frame offsets: 
#        150
#        15450
#        26855
#        36735
#        48970
#        60115
#        72135
#        82962
#        95495
#        108067
#        119640
#        131562
#        148207
#        158359
#        169275
#        180747
#        196497
#        207192
#        218502
#        231322
#        242520
#        254110
#        267140
#
# Disc length: 3736 seconds
#
# Revision: 3
# Processed by: cddbd v1.4PL0 Copyright (c) Steve Scherf et al.
# Submitted via: ExactAudioCopy v0.95a3
#
DISCID=450e9617
DTITLE=John Lee Hooker - The Blues Collection
DYEAR=1997
DGENRE=Blues
TTITLE0=Tupelo
TTITLE1=Boogie Chillun
TTITLE2=Dimples
TTITLE3=Drug Store Woman
TTITLE4=Boom Boom
TTITLE5=Frisco Blues
TTITLE6=No Shoes
TTITLE7=Hobo Blues
TTITLE8=Trouble Blues
TTITLE9=Little Wheel
TTITLE10=Whiskey And Wimmen
TTITLE11=Process
TTITLE12=I'm Leaving
TTITLE13=Send Me Your Pillow
TTITLE14=Good Rockin' Mama
TTITLE15=Thelma
TTITLE16=She's Mine (Keep Your Hands To Yourself)
TTITLE17=What Do You Say
TTITLE18=Lost A Good Girl
TTITLE19=Let's Make It
TTITLE20=You Talk Too Much
TTITLE21=Bury Me
TTITLE22=Peggy Lee
EXTD=
EXTT0=
EXTT1=
EXTT2=
EXTT3=
EXTT4=
EXTT5=
EXTT6=
EXTT7=
EXTT8=
EXTT9=
EXTT10=
EXTT11=
EXTT12=
EXTT13=
EXTT14=
EXTT15=
EXTT16=
EXTT17=
EXTT18=
EXTT19=
EXTT20=
EXTT21=
EXTT22=
PLAYORDER=
